ply
format ascii 1.0
element vertex 336
property float x
property float y
property float z
end_header
-1.0956165790557861 1.4998884201049805 2.1081550121307373
-1.1172717809677124 1.4153820276260376 2.1498234272003174
-1.1234573125839233 1.308434009552002 2.1617255210876465
-0.8727853298187256 0.9273160696029663 1.6793893575668335
-0.8485155701637268 0.8148368000984192 1.632690191268921
-0.8197693824768066 0.7034754157066345 1.5773775577545166
-0.7521557807922363 0.5686054825782776 1.447277307510376
-0.7188113331794739 0.4699569344520569 1.3831168413162231
-0.7025768756866455 0.38756030797958374 1.3518790006637573
-0.7016335725784302 0.31535378098487854 1.3500639200210571
-0.5871092677116394 0.20389488339424133 1.129699468612671
-0.5577163696289062 0.13670501112937927 1.073142409324646
-0.3638715147972107 0.05201369524002075 0.7001515030860901
-0.33109185099601746 0.013500205241143703 0.637077808380127
-0.3022036850452423 -0.01855398155748844 0.5814919471740723
-0.2763703763484955 -0.04520481079816818 0.5317842364311218
-0.2542596757411957 -0.06756606698036194 0.48923948407173157
-0.27468886971473694 -0.1010599285364151 0.5285487771034241
-0.3523985743522644 -0.16565458476543427 0.6780756711959839
-0.3535650968551636 -0.20232683420181274 0.6803202629089355
-0.3579857051372528 -0.2414320707321167 0.6888262629508972
-0.9988765120506287 1.5230967998504639 2.140775442123413
-1.0159705877304077 1.4335451126098633 2.1774113178253174
-1.0320909023284912 1.3388395309448242 2.2119600772857666
-0.8099592328071594 0.958514928817749 1.7358911037445068
-0.8025162220001221 0.8583807945251465 1.7199393510818481
-0.7948459982872009 0.7597235441207886 1.703500747680664
-0.7883129715919495 0.663769543170929 1.6894992589950562
-0.705269455909729 0.5135864615440369 1.5115216970443726
-0.6928755640983582 0.4257121682167053 1.484959363937378
-0.7434088587760925 0.3721609115600586 1.593261480331421
-0.5315373539924622 0.2056063413619995 1.1391819715499878
-0.47104066610336304 0.12860113382339478 1.0095264911651611
-0.3211238384246826 0.051127851009368896 0.6882272362709045
-0.2897265553474426 0.013158170506358147 0.6209371089935303
-0.2540619671344757 -0.0173737034201622 0.5445013642311096
-0.2463313788175583 -0.04487745836377144 0.5279332995414734
-0.2280823141336441 -0.06750845164060593 0.48882225155830383
-0.21335281431674957 -0.08742822706699371 0.45725423097610474
-0.3621665835380554 -0.1896238774061203 0.7761894464492798
-0.368961900472641 -0.23516948521137238 0.7907530665397644
-0.3201766014099121 -0.24051059782505035 0.6861972212791443
-0.9025444388389587 1.5529690980911255 2.1827621459960938
-0.9156322479248047 1.4579068422317505 2.214414358139038
-0.9295264482498169 1.3606637716293335 2.248016834259033
-0.9434939622879028 1.2599501609802246 2.28179669380188
-0.6975215077400208 0.8419034481048584 1.686923623085022
-0.7227507829666138 0.7795422077178955 1.7479394674301147
-0.7302996516227722 0.6939021348953247 1.7661960124969482
-0.7406172752380371 0.6085984706878662 1.7911487817764282
-0.7518270015716553 0.5212633609771729 1.8182588815689087
-0.5973799824714661 0.33746767044067383 1.4447360038757324
-0.3390631377696991 0.14800003170967102 0.8200085759162903
-0.3072052001953125 0.09464407712221146 0.742961585521698
-0.27876731753349304 0.050084732472896576 0.6741859316825867
-0.2438797503709793 0.012498602271080017 0.5898119211196899
-0.22827789187431335 -0.017615504562854767 0.5520795583724976
-0.2154138684272766 -0.044285405427217484 0.520968496799469
-0.2008218914270401 -0.06707428395748138 0.4856785237789154
-0.18716304004192352 -0.08654696494340897 0.4526452124118805
-0.42039433121681213 -0.24838192760944366 1.0167043209075928
-0.3536470830440521 -0.25435951352119446 0.8552792072296143
-0.2838823199272156 -0.24063648283481598 0.6865563988685608
-0.7974182963371277 1.5742841958999634 2.212721347808838
-0.811364471912384 1.482270359992981 2.251420021057129
-0.8279063105583191 1.390506386756897 2.297321319580078
-0.8473171591758728 1.2982637882232666 2.3511836528778076
-0.8717312812805176 1.2072300910949707 2.4189293384552
-0.7113556861877441 0.880320131778717 1.9739100933074951
-0.6368486285209656 0.6942822933197021 1.767163634300232
-0.6334452033042908 0.5972398519515991 1.75771963596344
-0.5386659502983093 0.4285105764865875 1.494720697402954
-0.31120896339416504 0.2017141431570053 0.8635602593421936
-0.2865777015686035 0.14352460205554962 0.7952120304107666
-0.2654212415218353 0.0938217043876648 0.736505925655365
-0.23896481096744537 0.04926065728068352 0.663093090057373
-0.2179519385099411 0.012815902009606361 0.6047853827476501
-0.19703756272792816 -0.017445482313632965 0.5467509627342224
-0.18546342849731445 -0.04374697431921959 0.5146344304084778
-0.17324063181877136 -0.06638921052217484 0.4807179570198059
-0.16121508181095123 -0.08553426712751389 0.4473487436771393
-0.37041813135147095 -0.2511065900325775 1.0278571844100952
-0.3484881818294525 -0.28758662939071655 0.9670047760009766
-0.325981080532074 -0.3170430362224579 0.9045507907867432
-0.6901291012763977 1.597959041595459 2.245997428894043
-0.7035576701164246 1.5074729919433594 2.2897002696990967
-0.7203423976898193 1.4189566373825073 2.344325304031372
-0.7394024133682251 1.328728199005127 2.406355381011963
-0.760972261428833 1.235988974571228 2.4765536785125732
-0.7866368889808655 1.1417380571365356 2.5600781440734863
-0.6091572046279907 0.7788747549057007 1.9824776649475098
-0.18571285903453827 0.2053619921207428 0.6043950319290161
-0.1896132379770279 0.17690864205360413 0.6170886754989624
-0.18973612785339355 0.14423565566539764 0.6174886226654053
-0.19158917665481567 0.1125364750623703 0.6235193014144897
-0.19348320364952087 0.08021382987499237 0.6296833157539368
-0.1953883022069931 0.0472392700612545 0.6358833909034729
-0.17967216670513153 0.012391036376357079 0.5847358703613281
-0.16542816162109375 -0.017178364098072052 0.5383793115615845
-0.15528351068496704 -0.042958926409482956 0.505363941192627
-0.1453789472579956 -0.0653412789106369 0.4731299877166748
-0.13548818230628967 -0.08430906385183334 0.44094085693359375
-0.3150544762611389 -0.2504897117614746 1.0253320932388306
-0.29271388053894043 -0.28331029415130615 0.9526256322860718
-0.27736082673072815 -0.31638020277023315 0.9026597142219543
-0.5845208168029785 1.6362332105636597 2.299793243408203
-0.596578061580658 1.5453505516052246 2.3472325801849365
-0.611770749092102 1.4568967819213867 2.407007932662964
-0.6280777454376221 1.364516019821167 2.471167802810669
-0.6459843516349792 1.2684626579284668 2.541621208190918
-0.6638057231903076 1.1647777557373047 2.611739158630371
-0.6471285223960876 1.0003193616867065 2.5461230278015137
-0.15230593085289001 0.20361268520355225 0.5992466807365417
-0.15447290241718292 0.1742379069328308 0.6077726483345032
-0.15531960129737854 0.1427443027496338 0.6111039519309998
-0.15615344047546387 0.110887810587883 0.6143847107887268
-0.15794356167316437 0.07916219532489777 0.6214278936386108
-0.15978780388832092 0.04670443385839462 0.6286840438842773
-0.145457461476326 0.01212754100561142 0.57230144739151
-0.13453355431556702 -0.01688934676349163 0.5293213725090027
-0.12549571692943573 -0.041972700506448746 0.4937620759010315
-0.118244469165802 -0.06425055116415024 0.46523210406303406
-0.11083922535181046 -0.0833827555179596 0.4360962212085724
-0.17242193222045898 -0.16573210060596466 0.6783929467201233
-0.18323999643325806 -0.21441206336021423 0.7209566235542297
-0.19365258514881134 -0.26705294847488403 0.7619248628616333
-0.47726500034332275 1.6888974905014038 2.3738150596618652
-0.49016132950782776 1.6050820350646973 2.4379587173461914
-0.5052018165588379 1.5209097862243652 2.5127668380737305
-0.5136033296585083 1.410559892654419 2.5545542240142822
-0.4253895580768585 1.0559442043304443 2.115797519683838
-0.4312252104282379 0.9565433859825134 2.144822835922241
-0.23760178685188293 0.46429744362831116 1.1817809343338013
-0.12062233686447144 0.2038516402244568 0.5999499559402466
-0.12087677419185638 0.17235808074474335 0.6012154817581177
-0.12145406752824783 0.14110520482063293 0.6040868163108826
-0.12213347852230072 0.10963908582925797 0.6074660420417786
-0.12308642268180847 0.07798741012811661 0.6122058033943176
-0.1243714764714241 0.0459551066160202 0.6185973882675171
-0.11282050609588623 0.011891133151948452 0.5611453056335449
-0.10451903939247131 -0.016587315127253532 0.5198555588722229
-0.09723988175392151 -0.04111316055059433 0.4836505651473999
-0.09213872253894806 -0.06329022347927094 0.45827847719192505
-0.0864591896533966 -0.0822228267788887 0.4300296902656555
-0.1777782142162323 -0.21601860225200653 0.8842312693595886
-0.18361718952655792 -0.2716068625450134 0.9132730960845947
-0.1742832064628601 -0.3038282096385956 0.866847813129425
-0.35571369528770447 1.7106246948242188 2.404353618621826
-0.3651818335056305 1.6250914335250854 2.468350887298584
-0.3732590973377228 1.5270715951919556 2.522947072982788
-0.3218591809272766 1.2012683153152466 2.175522804260254
-0.310769647359848 1.0483425855636597 2.1005661487579346
-0.21135066449642181 0.6371102929115295 1.4285694360733032
-0.16735975444316864 0.4444348216056824 1.1312243938446045
-0.08739611506462097 0.20071926712989807 0.590731143951416
-0.0878094956278801 0.1701534241437912 0.5935252904891968
-0.08808605372905731 0.13907484710216522 0.5953946113586426
-0.08847448229789734 0.10793422162532806 0.598020076751709
-0.08891692012548447 0.07656128704547882 0.6010106205940247
-0.08969368040561676 0.04503864049911499 0.6062609553337097
-0.08201940357685089 0.011747955344617367 0.554388701915741
-0.075924813747406 -0.016374759376049042 0.5131939053535461
-0.07039280235767365 -0.0404459647834301 0.4758017361164093
-0.06670894473791122 -0.06227145716547966 0.45090165734291077
-0.06267506629228592 -0.08100027590990067 0.42363569140434265
-0.06287192553281784 -0.10381972044706345 0.42496633529663086
-0.13398951292037964 -0.26934486627578735 0.9056671261787415
-0.12740018963813782 -0.30182352662086487 0.8611282706260681
-0.2301514893770218 1.7265963554382324 2.426802158355713
-0.23745185136795044 1.6484169960021973 2.5037801265716553
-0.24684055149555206 1.575391173362732 2.602778196334839
-0.2019377201795578 1.1757487058639526 2.1293060779571533
-0.1525328904390335 0.8026958107948303 1.6083632707595825
-0.1281816065311432 0.6027811169624329 1.35159432888031
-0.0998099222779274 0.413479208946228 1.0524327754974365
-0.05512208864092827 0.1974901705980301 0.581227719783783
-0.055457305163145065 0.16764123737812042 0.5847623348236084
-0.05565229058265686 0.13707156479358673 0.5868183374404907
-0.0557766854763031 0.10614920407533646 0.588129997253418
-0.05609074607491493 0.07534230500459671 0.5914415717124939
-0.05652642995119095 0.044279009103775024 0.5960355997085571
-0.05204189941287041 0.011628445237874985 0.5487490296363831
-0.04788581281900406 -0.016110941767692566 0.5049257278442383
-0.04462752118706703 -0.04000116139650345 0.47056910395622253
-0.042141567915678024 -0.06136751174926758 0.4443562924861908
-0.03971228003501892 -0.08006439357995987 0.41874098777770996
-0.03809599578380585 -0.09813530743122101 0.4016982614994049
-0.0855473205447197 -0.2682669460773468 0.9020426869392395
-0.08109474182128906 -0.29970821738243103 0.8550930619239807
-0.10163330286741257 1.7328236103057861 2.4355547428131104
-0.10515707731246948 1.659095287322998 2.5199990272521973
-0.10987519472837448 1.593722939491272 2.6330647468566895
-0.11089050024747849 1.467346429824829 2.657395839691162
-0.06805860251188278 0.8139763474464417 1.6309659481048584
-0.054361727088689804 0.58098965883255 1.302732229232788
-0.04104843735694885 0.38647183775901794 0.983690619468689
-0.02383996918797493 0.1941184401512146 0.571304440498352
-0.023962244391441345 0.16462314128875732 0.574234664440155
-0.02407953329384327 0.13478875160217285 0.5770453810691833
-0.024037795141339302 0.1039680540561676 0.5760451555252075
-0.02420208975672722 0.07388254255056381 0.579982340335846
-0.024369221180677414 0.043383967131376266 0.5839875340461731
-0.022505514323711395 0.01142875012010336 0.5393253564834595
-0.020778879523277283 -0.01588830165565014 0.4979480504989624
-0.019277166575193405 -0.039269402623176575 0.4619607925415039
-0.018324051052331924 -0.06064438819885254 0.43912020325660706
-0.017277058213949203 -0.07916362583637238 0.41402992606163025
-0.016310742124915123 -0.09549067169427872 0.3908729553222656
-0.03711201995611191 -0.26449447870254517 0.8893577456474304
-0.03525068610906601 -0.29608389735221863 0.8447524905204773
0.027847638353705406 1.741119384765625 2.4472148418426514
0.027060071006417274 1.5656099319458008 2.378004312515259
0.027177363634109497 1.4455807209014893 2.3883118629455566
0.019190434366464615 0.9312042593955994 1.686430811882019
0.01520987693220377 0.6670775413513184 1.3366246223449707
0.014124666340649128 0.5535733699798584 1.241257667541504
0.011879447847604752 0.4101468026638031 1.0439507961273193
0.006376319099217653 0.19039388000965118 0.5603427886962891
0.006427754648029804 0.161936417222023 0.5648629069328308
0.006425970233976841 0.13190649449825287 0.5647060871124268
0.006410913076251745 0.10168269276618958 0.5633828639984131
0.006432185880839825 0.07200612127780914 0.5652523040771484
0.006487482227385044 0.04235314205288887 0.5701116919517517
0.006010059267282486 0.01119206938892603 0.5281563401222229
0.005563396029174328 -0.015599733218550682 0.4889041781425476
0.005174752324819565 -0.03865649923682213 0.454750657081604
0.004955003038048744 -0.06013604626059532 0.4354393482208252
0.0046480451710522175 -0.07809945940971375 0.4084642827510834
0.00439606886357069 -0.09437860548496246 0.38632091879844666
0.009960170835256577 -0.2603098750114441 0.8752871155738831
0.009538719430565834 -0.29380494356155396 0.8382505178451538
0.15969505906105042 1.7618598937988281 2.4763665199279785
0.15256018936634064 1.5575270652770996 2.365727186203003
0.10778720676898956 1.0116771459579468 1.671439528465271
0.09065309911966324 0.7762158513069153 1.4057434797286987
0.09137614071369171 0.7071688771247864 1.416955590248108
0.07767089456319809 0.5371493101119995 1.2044305801391602
0.06601519882678986 0.4021857678890228 1.023687481880188
0.03546274080872536 0.18685080111026764 0.5499152541160583
0.035968117415905 0.15989786386489868 0.5577520728111267
0.03580600395798683 0.12969493865966797 0.5552381873130798
0.03567558899521828 0.0998476892709732 0.5532158613204956
0.03567833453416824 0.07047824561595917 0.5532584190368652
0.03577046096324921 0.04120725393295288 0.5546870231628418
0.033153362572193146 0.010894290171563625 0.5141040682792664
0.03082495927810669 -0.01525174081325531 0.47799789905548096
0.028891991823911667 -0.038084667176008224 0.4480236768722534
0.027552902698516846 -0.05900625139474869 0.42725861072540283
0.025898557156324387 -0.07678793370723724 0.40160492062568665
0.024446584284305573 -0.09261193871498108 0.3790894150733948
0.0562569759786129 -0.2594418227672577 0.8723682761192322
0.05366513878107071 -0.29167622327804565 0.8321770429611206
0.3237256407737732 1.9585787057876587 2.7528629302978516
0.3301621675491333 1.8484416007995605 2.8075971603393555
0.33793210983276367 1.7393550872802734 2.8736703395843506
0.191416397690773 0.8988000154495239 1.6277459859848022
0.1617390364408493 0.686418890953064 1.3753788471221924
0.13871750235557556 0.526080310344696 1.1796109676361084
0.11401138454675674 0.38090360164642334 0.969517707824707
0.10239896923303604 0.29587092995643616 0.8707692623138428
0.09146309643983841 0.22297435998916626 0.7777740359306335
0.0837385430932045 0.16633231937885284 0.7120867967605591
0.07699801027774811 0.11817631125450134 0.6547673940658569
0.07068075239658356 0.07656597346067429 0.6010473966598511
0.06559654325246811 0.041439466178417206 0.5578128099441528
0.05921613425016403 0.010670763440430164 0.5035557746887207
0.05523272603750229 -0.014986404217779636 0.46968209743499756
0.05158320441842079 -0.03728765249252319 0.43864771723747253
0.04942650347948074 -0.058046311140060425 0.42030778527259827
0.046413399279117584 -0.0754648745059967 0.3946852684020996
0.04360344633460045 -0.09058445692062378 0.3707903027534485
0.10196415334939957 -0.25786665081977844 0.867071807384491
0.09660150855779648 -0.28792324662208557 0.8214694857597351
0.6023760437965393 2.5106120109558105 3.528768539428711
0.6318641304969788 2.436969757080078 3.701512336730957
0.6595237851142883 2.3384993076324463 3.8635449409484863
0.2598072290420532 0.8403944373130798 1.5219722986221313
0.22012220323085785 0.6435558199882507 1.2894940376281738
0.17969481647014618 0.4694662094116211 1.0526671409606934
0.16385211050510406 0.37710899114608765 0.9598592519760132
0.14725232124328613 0.2931006848812103 0.862616240978241
0.13236385583877563 0.22229331731796265 0.7753983736038208
0.12143339961767197 0.16616417467594147 0.7113669514656067
0.11119304597377777 0.1175645962357521 0.6513780951499939
0.10161368548870087 0.0758289024233818 0.5952613949775696
0.0939006507396698 0.040864840149879456 0.5500777959823608
0.08719410747289658 0.010824069380760193 0.5107903480529785
0.08093751966953278 -0.0151286032050848 0.47413870692253113
0.07516784220933914 -0.03743146359920502 0.44033947587013245
0.0707249566912651 -0.05721835792064667 0.4143126606941223
0.06636981666088104 -0.07433958351612091 0.38879990577697754
0.06242663040757179 -0.08934098482131958 0.3657003939151764
0.08502496033906937 -0.1481296718120575 0.4980832636356354
0.13807028532028198 -0.28349214792251587 0.8088271617889404
0.7709311246871948 2.4506845474243164 3.444537878036499
0.8049402832984924 2.3678269386291504 3.596491575241089
0.833926260471344 2.2552480697631836 3.726001501083374
0.8243167996406555 2.033695697784424 3.6830661296844482
0.30346959829330444 0.6767019629478455 1.355908989906311
0.2343807965517044 0.4670363664627075 1.0472187995910645
0.21336376667022705 0.3745375871658325 0.9533141851425171
0.1900130659341812 0.28846827149391174 0.8489826917648315
0.17188110947608948 0.22016336023807526 0.7679687142372131
0.1580786556005478 0.16498039662837982 0.7062990665435791
0.13937348127365112 0.11239292472600937 0.6227239370346069
0.13181230425834656 0.07502369582653046 0.588940441608429
0.12180985510349274 0.04043184220790863 0.5442492365837097
0.11312957853078842 0.010711233131587505 0.505465567111969
0.1050344854593277 -0.014974100515246391 0.46929651498794556
0.09782891720533371 -0.03715624660253525 0.4371018409729004
0.09121767431497574 -0.05628615617752075 0.4075626730918884
0.08548310399055481 -0.07302804291248322 0.38194048404693604
0.08044415712356567 -0.08780822902917862 0.359426349401474
0.07846321165561676 -0.10426093637943268 0.35057544708251953
0.12161383032798767 -0.19045117497444153 0.5433734059333801
0.914656937122345 2.3499510288238525 3.302952766418457
0.9568732976913452 2.274937629699707 3.45540189743042
0.9963792562484741 2.1778106689453125 3.5980634689331055
1.017945408821106 2.029761552810669 3.6759417057037354
0.3632698953151703 0.6546971201896667 1.3118178844451904
0.280612975358963 0.45192375779151917 1.0133322477340698
0.2582991123199463 0.36645984649658203 0.93275386095047
0.23169301450252533 0.2842865288257599 0.8366755247116089
0.15946243703365326 0.1650836318731308 0.575840950012207
0.15831905603408813 0.1335429847240448 0.571712076663971
0.16379831731319427 0.10675715655088425 0.5914984345436096
0.16148856282234192 0.0742870345711708 0.5831575989723206
0.14873671531677246 0.03990139067173004 0.5371088981628418
0.13836200535297394 0.010587877593934536 0.49964436888694763
0.1283368468284607 -0.014787302352488041 0.4634421467781067
0.11934198439121246 -0.036634188145399094 0.43096044659614563
0.11120717227458954 -0.055460549890995026 0.40158453583717346
0.10388148576021194 -0.07172594219446182 0.37513044476509094
0.09751350432634354 -0.08602689951658249 0.3521347939968109
0.09330808371305466 -0.10020826756954193 0.336948424577713
0.24196146428585052 -0.3062496781349182 0.8737564086914062
